<svg xmlns="http://www.w3.org/2000/svg" viewBox="0 0 259.3 231.2"><rect x="162.8" y="177" width="111.6" height="5.89" transform="translate(64.9 -239.5) rotate(45)"/><rect x="153.4" y="148.7" width="34.3" height="7.47" transform="translate(272.6 1.9) rotate(135)"/><rect x="71" y="246.4" width="177" height="7" transform="translate(283 -47.3) rotate(90)"/><circle cx="53.7" cy="33.7" r="9"/><circle cx="53.2" cy="51.2" r="4.5"/><rect x="135.5" y="239.9" width="89" height="4" transform="translate(295.5 -75.8) rotate(90)"/><rect x="46.7" y="151.7" width="12" height="4"/><rect x="47.7" y="161.7" width="12" height="4"/><rect x="46.7" y="156.7" width="12" height="4"/><rect x="153" y="329.4" width="48" height="4" transform="translate(382 16.7) rotate(90)"/><rect x="158" y="329.4" width="48" height="4" transform="translate(387 11.7) rotate(90)"/><rect x="108" y="276.4" width="177" height="7" transform="translate(350 -54.3) rotate(90)"/><rect x="184.2" y="221.4" width="86.4" height="7.17" transform="translate(99.3 -232.5) rotate(45)"/><rect x="203" y="252.6" width="56.5" height="1.74" transform="translate(120.6 -226.9) rotate(45)"/><rect x="122.2" y="207.7" width="45.2" height="7.06" transform="translate(-233.3 26.7) rotate(-45)"/><rect x="119" y="234.4" width="45" height="7" transform="translate(-222.7 241.7) rotate(-90)"/><rect x="16.7" y="126.7" width="12" height="4"/><rect x="125" y="294.4" width="48" height="4" transform="translate(319 9.7) rotate(90)"/><rect x="166.5" y="274.9" width="88" height="3" transform="translate(360.5 -71.8) rotate(90)"/><circle cx="129.7" cy="145.2" r="4.5"/><circle cx="84.2" cy="189.2" r="4.5"/><rect x="237.7" y="177.4" width="111.6" height="5.89" transform="translate(502.2 -37.2) rotate(135)"/><rect x="324.3" y="149.1" width="34.3" height="7.47" transform="translate(81.8 -334.3) rotate(45)"/><rect x="264" y="246.8" width="177" height="7" transform="translate(476.5 -239.8) rotate(90)"/><circle cx="205.6" cy="34.2" r="9"/><circle cx="206.1" cy="51.7" r="4.5"/><rect x="287.5" y="240.3" width="89" height="4" transform="translate(448 -227.3) rotate(90)"/><rect x="327" y="289.8" width="12" height="4" transform="translate(539.6 446) rotate(-180)"/><rect x="326" y="299.8" width="12" height="4" transform="translate(537.6 466) rotate(-180)"/><rect x="327" y="294.8" width="12" height="4" transform="translate(539.6 456) rotate(-180)"/><rect x="311" y="329.8" width="48" height="4" transform="translate(540.5 -140.8) rotate(90)"/><rect x="306" y="329.8" width="48" height="4" transform="translate(535.5 -135.8) rotate(90)"/><rect x="227" y="276.8" width="177" height="7" transform="translate(469.5 -172.8) rotate(90)"/><rect x="241" y="222" width="86.9" height="7.21" transform="translate(518.8 46.4) rotate(135)"/><rect x="252.6" y="253.1" width="56.5" height="1.74" transform="translate(532.6 97.3) rotate(135)"/><rect x="344.6" y="208.2" width="45.2" height="7.06" transform="translate(350.7 483.5) rotate(-135)"/><rect x="348" y="234.8" width="45" height="7" transform="translate(5.8 471.2) rotate(-90)"/><rect x="357" y="264.8" width="12" height="4" transform="translate(599.6 396) rotate(-180)"/><rect x="339" y="294.8" width="48" height="4" transform="translate(533.5 -203.8) rotate(90)"/><rect x="257.5" y="275.3" width="88" height="3" transform="translate(452 -162.3) rotate(90)"/><circle cx="175.1" cy="189.7" r="4.5"/></svg>